<svg width="22" height="22" viewBox="0 0 22 22" fill="none" xmlns="http://www.w3.org/2000/svg">
<g clip-path="url(#clip0_1353_1450)">
<path d="M11 22C17.0751 22 22 17.0751 22 11C22 4.92487 17.0751 0 11 0C4.92487 0 0 4.92487 0 11C0 17.0751 4.92487 22 11 22Z" fill="#FFDA44"/>
<path d="M8.60844 9.56523H21.9066C21.2035 4.16805 16.5885 0 10.9997 0C10.1784 0 9.37836 0.090793 8.6084 0.261465V9.56523H8.60844Z" fill="#0052B4"/>
<path d="M5.73878 9.56461V1.33691C2.71834 2.98494 0.556105 6.00783 0.0927734 9.56466H5.73878V9.56461Z" fill="#0052B4"/>
<path d="M5.73874 12.4355H0.0927734C0.556105 15.9924 2.71834 19.0153 5.73878 20.6632L5.73874 12.4355Z" fill="#0052B4"/>
<path d="M8.6084 12.4356V21.7393C9.37836 21.91 10.1784 22.0008 10.9997 22.0008C16.5885 22.0008 21.2035 17.8327 21.9066 12.4355H8.6084V12.4356Z" fill="#0052B4"/>
</g>
<defs>
<clipPath id="clip0_1353_1450">
<rect width="22" height="22" fill="white"/>
</clipPath>
</defs>
</svg>
