<svg width="13" height="8" viewBox="0 0 13 8" fill="none" xmlns="http://www.w3.org/2000/svg">
<path d="M12.4766 0.52374C12.4766 0.592499 12.465 0.660592 12.4424 0.724127C12.4197 0.787663 12.3866 0.845395 12.3448 0.894031L6.79497 7.34672C6.71054 7.44487 6.59604 7.5 6.47666 7.5C6.35727 7.5 6.24278 7.44487 6.15834 7.34673L0.608518 0.894032C0.566697 0.845427 0.533518 0.787722 0.510878 0.724208C0.488237 0.660695 0.476576 0.592618 0.476562 0.523865C0.476548 0.455112 0.488181 0.387029 0.510796 0.323503C0.533412 0.259978 0.566566 0.202252 0.608368 0.153625C0.650169 0.104998 0.699798 0.0664205 0.754422 0.0400948C0.809045 0.0137691 0.867594 0.000210257 0.926724 0.00019404C0.985854 0.000177824 1.04441 0.0137038 1.09904 0.0399994C1.15368 0.0662951 1.20332 0.104847 1.24514 0.153451C3.99818 3.35454 8.95483 3.35454 11.7079 0.153451C11.7708 0.0801894 11.8511 0.0302917 11.9384 0.0100724C12.0258 -0.010147 12.1164 0.000220415 12.1987 0.0398627C12.2809 0.0795051 12.3513 0.146641 12.4007 0.232774C12.4502 0.318907 12.4766 0.420167 12.4766 0.52374Z" fill="#FEB20E"/>
</svg>
